# xmcd
#
# Track frame offsets:
#	150
#	23190
#	36091
#	49725
#	60469
#	87490
#	112396
#	128421
#	147699
#	169836
#
# Disc length: 2551 seconds
#
# Revision: 1
# Processed by: cddbd v1.5.2PL0 Copyright (c) Steve Scherf et al.
# Submitted via: audiograbber 1.83.01
#
DISCID=8e09f50a
DTITLE=Jimi Hendrix - The Authentic PPX Studio Recordings Vol.5
DYEAR=1900
DGENRE=
TTITLE0=California Night
TTITLE1=Level
TTITLE2=I Feel Good
TTITLE3=Left Alone
TTITLE4=Knock Yourself Out
TTITLE5=Something On Your Mind
TTITLE6=I Should've Quit You
TTITLE7=Hard Night
TTITLE8=I'm A Man
TTITLE9=Instrumental
EXTD=
EXTT0=
EXTT1=
EXTT2=
EXTT3=
EXTT4=
EXTT5=
EXTT6=
EXTT7=
EXTT8=
EXTT9=
PLAYORDER=
